<svg viewBox="0 0 500 500" fill="none" xmlns="http://www.w3.org/2000/svg">
<g>
<path d="M143.325 418.922C123.618 413.164 112.239 392.319 118.014 372.483L107.359 369.353C103.747 381.819 105.135 394.948 111.351 406.353C117.566 417.75 127.842 426.026 140.213 429.655C144.713 431 149.264 431.612 153.816 431.612C166.92 431.612 179.626 426.25 188.902 416.241L180.851 408.586C171.187 418.922 156.808 422.888 143.325 418.922Z" fill="url(#paint0_linear_1_2)"/>
<path d="M176.851 0.00854492C146.489 0.00854492 120.954 19.3448 114.239 46.6723C77.9368 47.0689 48.5144 76.9051 48.5144 113.569V114.965C28.6954 130.612 16.9282 154.75 16.9282 180.129C16.9282 187.509 18.8678 197.121 20.8161 204.328C-3.49424 227.853 -7.04595 266.698 12.9885 294.414C15.3765 297.707 18.092 300.672 20.9799 303.414C18.2558 312.078 16.9282 320.345 16.9282 329.681C16.9282 356.112 29.4713 380.871 50.5661 396.465C53.842 435.75 84.4799 467.388 123.445 471.69C135.549 489.465 155.308 500.026 176.842 500.026C206.54 500.026 232.351 479.793 239.566 451.181C240.954 446.819 241.678 442.293 241.678 437.767V64.9999C241.678 64.1637 241.618 63.3792 241.566 62.6551C240.239 27.4999 211.764 0.00854492 176.851 0.00854492ZM230.583 437.759C230.583 441.164 230.023 444.517 228.92 448.095C222.868 472.069 201.445 488.836 176.851 488.836C158.256 488.836 141.213 479.336 131.282 463.405L129.842 461L127.014 460.776C91.4368 458.095 63.2902 428.974 61.4627 393.155L61.3506 390.362L59.0747 388.802C39.6437 375.448 28.0489 353.31 28.0489 329.672C28.0489 322.069 29.0489 315.983 30.3247 311.009C41.704 318.664 54.9196 322.629 68.1782 322.629C80.0575 322.629 91.9885 319.5 102.652 313.19C105.592 316.146 108.816 318.836 112.42 321.069C120.635 326.095 129.79 328.56 139.006 328.56C148.221 328.56 157.489 326.043 165.764 320.905L159.937 311.405C147.118 319.396 131.075 319.396 118.195 311.517C109.092 305.931 102.704 297.095 100.213 286.646C97.7127 276.25 99.3851 265.465 104.928 256.302L95.4368 250.491C88.3333 262.172 86.2213 275.974 89.4454 289.328C90.7213 294.69 92.8851 299.724 95.7127 304.302C75.0058 315.759 49.1437 313.302 30.9368 297.543C27.6092 294.69 24.6092 291.448 21.9971 287.819C4.56611 263.784 8.39371 229.759 30.7127 210.362L33.4368 207.957L32.3851 204.491C30.3334 197.56 28.0575 187 28.0575 180.129C28.0575 157.276 39.0489 135.646 57.4713 122.172L59.9713 120.388L59.7471 117.259C59.6351 116.026 59.6351 114.853 59.6351 113.569C59.6351 82.8361 84.4454 57.793 114.98 57.793C116.144 57.793 117.316 57.8534 118.42 57.9051C145.066 59.5775 166.601 80.1465 169.928 106.526C156.273 114.069 146.394 126.25 141.282 140.164C125.514 140.052 110.532 145.75 98.7644 156.483C86.2213 167.828 78.8334 183.474 77.9454 200.405L89.0489 201.017C89.773 186.991 95.8247 174.138 106.144 164.75C115.135 156.646 126.411 152.009 138.282 151.396C136.342 162.629 137.333 174.586 141.833 185.879L152.161 181.741C141.945 156.034 153.325 126.638 178.195 114.793L181.583 113.172L181.359 109.431C179.42 77.9654 155.937 52.3706 125.575 47.5086C131.79 26.4396 152.773 11.181 176.868 11.181C205.79 11.181 229.376 33.9827 230.549 63.2068C230.549 63.8189 230.609 64.3792 230.609 64.9913V437.759H230.583Z" fill="url(#paint1_linear_1_2)"/>
<path d="M311.066 416.241C320.394 426.241 333.101 431.612 346.204 431.612C350.704 431.612 355.308 431 359.808 429.655C372.187 426.026 382.454 417.75 388.618 406.353C394.833 394.948 396.282 381.819 392.67 369.353L382.014 372.483C384.79 382.095 383.678 392.207 378.902 400.983C374.127 409.759 366.247 416.129 356.704 418.922C343.213 422.888 328.833 418.922 319.178 408.586L311.066 416.241Z" fill="url(#paint2_linear_1_2)"/>
<path d="M486.98 294.405C507.075 266.69 503.463 227.845 479.213 204.319C481.152 197.112 483.04 187.5 483.04 180.121C483.04 154.75 471.325 130.603 451.514 114.957V113.56C451.514 76.9052 422.092 47.0603 385.739 46.6638C379.075 19.3362 353.54 0 323.178 0C288.213 0 259.79 27.5 258.402 62.5948C258.351 63.3793 258.351 64.1638 258.351 65V437.75C258.351 442.276 259.075 446.802 260.351 450.828C267.626 479.776 293.489 500.009 323.187 500.009C344.721 500.009 364.489 489.448 376.592 471.672C415.506 467.371 446.204 435.741 449.471 396.448C470.566 380.853 483.057 356.103 483.057 329.664C483.057 320.328 481.782 312.06 479.058 303.397C481.868 300.672 484.644 297.707 486.98 294.405ZM478.04 287.819C475.428 291.448 472.376 294.69 469.101 297.603C450.894 313.31 425.032 315.767 404.325 304.31C407.152 299.724 409.325 294.698 410.601 289.336C413.825 275.983 411.652 262.172 404.609 250.5L395.118 256.31C400.67 265.474 402.333 276.259 399.833 286.655C397.282 297.103 390.894 305.931 381.79 311.526C368.911 319.405 352.928 319.405 340.101 311.414L334.273 320.914C342.489 326.052 351.756 328.569 361.032 328.569C370.187 328.569 379.402 326.112 387.566 321.078C391.23 318.845 394.445 316.155 397.333 313.198C408.049 319.517 419.928 322.638 431.859 322.638C445.126 322.638 458.333 318.672 469.713 311.017C470.989 315.991 471.937 322.086 471.937 329.681C471.937 353.319 460.333 375.448 440.963 388.81L438.687 390.371L438.523 393.164C436.747 428.983 408.549 458.103 372.971 460.784L370.195 461.009L368.695 463.414C358.816 479.336 341.773 488.845 323.178 488.845C298.532 488.845 277.161 472.078 271.006 447.767C270.006 444.526 269.454 441.172 269.454 437.767V65C269.454 64.3879 269.454 63.7759 269.506 63.1034C270.67 33.9914 294.204 11.1897 323.187 11.1897C347.221 11.1897 368.264 26.4483 374.48 47.5172C344.118 52.3793 320.635 77.9741 318.695 109.44L318.471 113.181L321.859 114.802C346.67 126.647 358.101 156.043 347.894 181.75L358.161 185.888C362.713 174.603 363.713 162.638 361.764 151.353C373.644 152.026 384.911 156.664 393.851 164.767C404.17 174.155 410.282 187.009 411.006 201.034L422.109 200.422C421.221 183.491 413.842 167.845 401.29 156.5C389.523 145.767 374.532 140.069 358.773 140.181C353.67 126.267 343.79 114.086 330.126 106.543C333.402 80.1638 354.997 59.5948 381.635 57.9224C382.747 57.8707 383.911 57.8103 385.023 57.8103C415.549 57.8103 440.42 82.8448 440.42 113.586C440.42 114.871 440.083 120.405 440.083 120.405L442.583 122.19C460.954 135.655 471.945 157.284 471.945 180.147C471.945 187.017 469.721 197.578 467.618 204.509L466.566 207.974L469.342 210.379C491.583 229.75 495.411 263.784 478.04 287.819Z" fill="url(#paint3_linear_1_2)"/>
</g>
<defs>
<linearGradient id="paint0_linear_1_2" x1="117.079" y1="365.663" x2="164.172" y2="431.164" gradientUnits="userSpaceOnUse">
<stop stop-color="hsl(293.33 11.25% 31.37%)"/>
<stop offset="0.45" stop-color="hsl(334.47 21.08% 43.73%)"/>
<stop offset="0.8" stop-color="hsl(351.52 41.82% 56.86%)"/>
<stop offset="1" stop-color="hsl(0 79.19% 66.08%)"/>
</linearGradient>
<linearGradient id="paint1_linear_1_2" x1="47.7228" y1="93.4694" x2="281.978" y2="419.284" gradientUnits="userSpaceOnUse">
<stop stop-color="hsl(293.33 11.25% 31.37%)"/>
<stop offset="0.45" stop-color="hsl(334.47 21.08% 43.73%)"/>
<stop offset="0.8" stop-color="hsl(351.52 41.82% 56.86%)"/>
<stop offset="1" stop-color="hsl(0 79.19% 66.08%)"/>
</linearGradient>
<linearGradient id="paint2_linear_1_2" x1="348.997" y1="388.802" x2="372.683" y2="421.745" gradientUnits="userSpaceOnUse">
<stop stop-color="hsl(293.33 11.25% 31.37%)"/>
<stop offset="0.45" stop-color="hsl(334.47 21.08% 43.73%)"/>
<stop offset="0.8" stop-color="hsl(351.52 41.82% 56.86%)"/>
<stop offset="1" stop-color="hsl(0 79.19% 66.08%)"/>
</linearGradient>
<linearGradient id="paint3_linear_1_2" x1="215.035" y1="79.3724" x2="452.483" y2="409.629" gradientUnits="userSpaceOnUse">
<stop stop-color="hsl(293.33 11.25% 31.37%)"/>
<stop offset="0.45" stop-color="hsl(334.47 21.08% 43.73%)"/>
<stop offset="0.8" stop-color="hsl(351.52 41.82% 56.86%)"/>
<stop offset="1" stop-color="hsl(0 79.19% 66.08%)"/>
</linearGradient>
</defs>
</svg>
